HIERARCHY
ROOT Hips
{
  OFFSET -31.5692 30.0904 122.763
  CHANNELS 6 Xposition Yposition Zposition Zrotation Xrotation Yrotation
  JOINT LeftUpLeg
  {
    OFFSET 8.64259 1.95398 -2.38835
    CHANNELS 3 Zrotation Xrotation Yrotation
    JOINT LeftLeg
    {
      OFFSET 43.7702 0 0
      CHANNELS 3 Zrotation Xrotation Yrotation
      JOINT LeftFoot
      {
        OFFSET 40.6238 0 0
        CHANNELS 3 Zrotation Xrotation Yrotation
        JOINT LeftToeBase
        {
          OFFSET 12.7242 0 0
          CHANNELS 3 Zrotation Xrotation Yrotation
          End Site
          {
            OFFSET 0 0 0
          }
        }
      }
    }
  }
  JOINT RightUpLeg
  {
    OFFSET -8.2249 1.95398 -2.59336
    CHANNELS 3 Zrotation Xrotation Yrotation
    JOINT RightLeg
    {
      OFFSET 43.5653 0 0
      CHANNELS 3 Zrotation Xrotation Yrotation
      JOINT RightFoot
      {
        OFFSET 40.6238 0 0
        CHANNELS 3 Zrotation Xrotation Yrotation
        JOINT RightToeBase
        {
          OFFSET 12.7242 0 0
          CHANNELS 3 Zrotation Xrotation Yrotation
          End Site
          {
            OFFSET 0 0 0
          }
        }
      }
    }
  }
  JOINT Spine
  {
    OFFSET 0.165834 0.87714 6.61349
    CHANNELS 3 Zrotation Xrotation Yrotation
    JOINT Spine1
    {
      OFFSET 7.38963 1.71661e-005 0
      CHANNELS 3 Zrotation Xrotation Yrotation
      JOINT Spine2
      {
        OFFSET 11.9445 1.14441e-005 0
        CHANNELS 3 Zrotation Xrotation Yrotation
        JOINT Spine3
        {
          OFFSET 14.7254 4.19617e-005 0
          CHANNELS 3 Zrotation Xrotation Yrotation
          JOINT Spine4
          {
            OFFSET 10.9679 0 0
            CHANNELS 3 Zrotation Xrotation Yrotation
            JOINT RightShoulder
            {
              OFFSET 2.46616 -1.6653 3.69651
              CHANNELS 3 Zrotation Xrotation Yrotation
              JOINT RightArm
              {
                OFFSET 13.0012 0 0
                CHANNELS 3 Zrotation Xrotation Yrotation
                JOINT RightForeArm
                {
                  OFFSET 28.7848 1.62311e-005 0
                  CHANNELS 3 Zrotation Xrotation Yrotation
                  JOINT RightHand
                  {
                    OFFSET 26.5688 1.62095e-005 0
                    CHANNELS 3 Zrotation Xrotation Yrotation
                    End Site
                    {
                      OFFSET 0 0 0
                    }
                  }
                }
              }
            }
            JOINT LeftShoulder
            {
              OFFSET 2.38034 -1.29275 -3.7523
              CHANNELS 3 Zrotation Xrotation Yrotation
              JOINT LeftArm
              {
                OFFSET 16.3182 6.07031e-005 0
                CHANNELS 3 Zrotation Xrotation Yrotation
                JOINT LeftForeArm
                {
                  OFFSET 27.0901 0 0
                  CHANNELS 3 Zrotation Xrotation Yrotation
                  JOINT LeftHand
                  {
                    OFFSET 24.5451 1.51738e-005 0
                    CHANNELS 3 Zrotation Xrotation Yrotation
                    End Site
                    {
                      OFFSET 0 0 0
                    }
                  }
                }
              }
            }
            JOINT Neck
            {
              OFFSET 5.0226 -0.0266342 0
              CHANNELS 3 Zrotation Xrotation Yrotation
              JOINT Head
              {
                OFFSET 6.69364 2.86102e-005 0
                CHANNELS 3 Zrotation Xrotation Yrotation
                End Site
                {
                  OFFSET 0 0 0
                }
              }
            }
          }
        }
      }
    }
  }
}
MOTION
Frames:	6
Frame Time:	0.0416667
-382.664 95.8497 352.431 97.2555 28.0321 81.053 -166.159 -1.75865 92.4205 5.77106 52.3852 -17.9528 20.2286 -57.7264 41.2578 100.986 17.2606 -36.5411 174.107 -3.88497 87.4821 -19.6209 -16.83 -6.00916 71.8944 -6.29286 -9.45448 26.1166 -0.898891 9.59184 8.84424 3.58799 -88.7917 20.1456 17.9402 -1.43009 8.60164 17.8593 -2.24455 -14.9342 17.5128 4.20508 5.07843 17.5128 4.20508 71.9091 68.8352 -26.9391 29.0179 4.45457 93.0357 14.8802 72.3929 0.012724 5.63875 1.74997 -10.5398 -105.26 -30.3413 45.9878 -29.2743 17.9838 13.3948 -12.7914 79.2503 -0.095459 -49.5518 19.8017 -23.759 -52.6211 -11.1298 -38.2621 -14.6971 -23.4956 -31.6337 
-382.773 95.863 352.393 97.2354 28.0835 80.9269 -166.416 -1.84655 92.1465 4.85471 52.0568 -17.4082 19.0329 -57.2854 39.4479 101.127 17.74 -35.2736 173.9 -3.93249 87.3418 -19.5695 -16.2283 -5.90391 72.9443 -7.48916 -11.2435 23.32 -1.02638 14.403 8.87027 3.66869 -88.7743 19.9779 18.0069 -1.36915 8.43505 17.9286 -2.18695 -15.1072 17.5579 4.28483 4.90549 17.5579 4.28482 71.9026 67.7773 -25.2406 29.8124 4.98711 91.8737 14.4771 73.1288 0.0132618 6.6072 1.75277 -10.3416 -105.452 -29.8849 45.3621 -29.9112 19.3584 13.1981 -12.6079 78.4284 -0.0887616 -72.2647 31.6016 -26.7583 -52.171 -11.3845 -38.2525 -14.3054 -23.5919 -31.8235 
-383.093 95.8382 352.305 97.1734 28.2534 80.6069 -167.454 -1.7074 91.0477 0.872617 50.8397 -14.8668 18.1693 -55.8669 36.3529 101.033 18.7955 -32.3631 173.071 -4.17969 86.768 -18.8993 -15.3361 -5.43481 75.3611 -11.1006 -16.6262 17.0172 -2.77446 27.8318 8.82451 3.89192 -88.7385 19.5013 17.9545 -1.17241 7.95793 17.8849 -1.98794 -15.5739 17.4492 4.45375 4.43877 17.4492 4.45375 72.3809 64.8301 -21.0471 33.3988 7.21764 87.5551 13.1726 75.7548 0.0156411 9.3473 1.79148 -10.0393 -105.402 -29.0332 44.875 -31.9402 21.5162 12.0277 -11.7276 73.25 -0.0617807 -114.173 51.3938 -23.2342 -50.877 -11.7777 -38.0274 -12.7951 -23.6642 -31.4149 
-383.57 95.6724 352.225 97.0649 28.5695 80.1885 -169.108 -1.27884 89.3117 -5.61511 48.3389 -10.9213 18.7685 -53.217 33.1188 100.251 20.2006 -28.1599 172.269 -4.63608 86.0943 -16.8563 -12.8871 -5.00262 77.925 -16.8239 -24.529 14.816 -8.94018 51.0102 8.6926 4.23495 -88.7226 18.7684 17.7298 -0.923484 7.2221 17.6715 -1.72849 -16.2786 17.1614 4.61526 3.73407 17.1614 4.61526 75.2396 59.8031 -16.8032 39.6454 9.69476 79.6302 11.7602 80.0415 0.022256 13.9354 1.87537 -10.2477 -105.536 -28.3982 44.2108 -34.465 25.4454 11.2367 -12.3533 57.6982 -0.0333189 -145.384 53.2133 -10.6785 -48.6385 -12.5064 -37.1477 -10.5494 -23.6351 -30.2488 
-384.128 95.5241 352.164 96.8979 29.0615 79.7732 -170.433 -0.852246 87.9507 -11.4163 44.471 -7.87481 20.8561 -48.8641 30.1364 98.0262 21.5556 -23.0364 171.683 -4.74186 84.9608 -14.3095 -9.47689 -4.65655 79.5667 -23.6027 -33.6471 27.4778 -14.3483 80.2108 8.42028 4.67287 -88.7409 17.8313 17.2141 -0.649351 6.27786 17.1683 -1.42979 -17.1595 16.5896 4.70543 2.85312 16.5896 4.70543 81.3892 52.2816 -13.6208 48.1579 10.6404 67.6662 10.9268 85.5347 0.0494365 20.3409 1.86966 -11.8325 -105.394 -28.0445 44.2086 -36.9956 29.7447 9.45006 -13.6202 34.2321 -0.0215357 -161.45 42.7178 -5.56329 -45.2914 -13.3976 -35.4533 -7.61129 -23.3069 -27.6702 
-384.703 95.6079 352.142 96.6494 29.7578 79.4658 -171.925 -1.09782 86.5732 -15.4403 37.6483 -4.91826 23.61 -43.4431 26.6345 94.7986 22.6354 -17.3505 171.307 -2.95821 82.9817 -14.8351 -4.41978 -4.07804 81.9479 -30.0067 -40.9944 50.3038 -7.25764 100.891 9.81838 6.1475 -86.1501 14.2656 21.3202 4.7049 2.77422 21.5058 3.71801 -20.9036 18.8919 11.1002 -0.890992 18.8919 11.1002 98.9251 31.675 0.688169 53.2512 9.20369 58.3714 -168.301 83.2447 179.967 27.5661 1.63798 -15.0074 -89.0391 10.9219 42.8991 -42.4 39.8103 -21.0629 -12.1764 5.74878 0.166276 -168.921 31.9097 -7.48688 -25.1087 -21.5778 -68.6199 -3.96007 -29.066 -10.8918 
